<?xml version="1.0" encoding="utf-8"?>
<!-- Generator: Adobe Illustrator 18.0.0, SVG Export Plug-In . SVG Version: 6.00 Build 0)  -->
<!DOCTYPE svg PUBLIC "-//W3C//DTD SVG 1.1//EN" "http://www.w3.org/Graphics/SVG/1.1/DTD/svg11.dtd">
<svg version="1.1" id="Layer_1" xmlns="http://www.w3.org/2000/svg" xmlns:xlink="http://www.w3.org/1999/xlink" x="0px" y="0px"
	 width="28px" height="28px" viewBox="0 0 28 28" enable-background="new 0 0 28 28" xml:space="preserve">
<path fill="#FFFFFF" d="M26.1,0.4H1.9c-0.8,0-1.5,0.7-1.5,1.5v24.2c0,0.8,0.7,1.5,1.5,1.5h13V17.1h-3.5V13h3.5v-3
	c0-3.5,2.1-5.4,5.3-5.4c1.5,0,2.8,0.1,3.2,0.2v3.7l-2.2,0c-1.7,0-2,0.8-2,2V13h4.1l-0.5,4.1h-3.5v10.5h6.9c0.8,0,1.5-0.7,1.5-1.5
	V1.9C27.6,1.1,26.9,0.4,26.1,0.4z"/>
</svg>
