<?xml version="1.0" encoding="utf-8"?>
<!-- Generator: Adobe Illustrator 18.0.0, SVG Export Plug-In . SVG Version: 6.00 Build 0)  -->
<!DOCTYPE svg PUBLIC "-//W3C//DTD SVG 1.1//EN" "http://www.w3.org/Graphics/SVG/1.1/DTD/svg11.dtd">
<svg version="1.1" id="Layer_1" xmlns="http://www.w3.org/2000/svg" xmlns:xlink="http://www.w3.org/1999/xlink" x="0px" y="0px"
	 width="28px" height="28px" viewBox="0 0 28 28" enable-background="new 0 0 28 28" xml:space="preserve">
<path fill="#FFFFFF" d="M27.7,4.2c-1,0.4-2.1,0.8-3.2,0.9C25.7,4.4,26.5,3.3,27,2c-1.1,0.6-2.3,1.1-3.6,1.4c-1-1.1-2.5-1.8-4.1-1.8
	c-3.1,0-5.6,2.5-5.6,5.6c0,0.4,0,0.9,0.1,1.3C9.1,8.2,5,6,2.2,2.6C1.7,3.4,1.4,4.4,1.4,5.4c0,2,1,3.7,2.5,4.7
	c-0.9,0-1.8-0.3-2.6-0.7c0,0,0,0,0,0.1c0,2.7,1.9,5,4.5,5.5c-0.5,0.1-1,0.2-1.5,0.2c-0.4,0-0.7,0-1.1-0.1c0.7,2.2,2.8,3.9,5.3,3.9
	c-1.9,1.5-4.4,2.4-7,2.4c-0.5,0-0.9,0-1.3-0.1c2.5,1.6,5.5,2.5,8.6,2.5c10.4,0,16-8.6,16-16c0-0.2,0-0.5,0-0.7
	C26,6.3,27,5.3,27.7,4.2z"/>
</svg>
