<?xml version="1.0" encoding="utf-8"?>
<!-- Generator: Adobe Illustrator 18.0.0, SVG Export Plug-In . SVG Version: 6.00 Build 0)  -->
<!DOCTYPE svg PUBLIC "-//W3C//DTD SVG 1.1//EN" "http://www.w3.org/Graphics/SVG/1.1/DTD/svg11.dtd">
<svg version="1.1" id="Layer_1" xmlns="http://www.w3.org/2000/svg" xmlns:xlink="http://www.w3.org/1999/xlink" x="0px" y="0px"
	 viewBox="0 0 871.2 173.7" enable-background="new 0 0 871.2 173.7" xml:space="preserve">
<path fill="#FFFFFF" d="M829.7,173.4H516.8c0,0-37.9,2.2-37.9-31.8V37.9C478.8-2.3,516.8,0,516.8,0h316.2C871.7,0,871,38.1,871,38.1
	v6.3H747.5v-6.9c0,0-1.4-17.7-22.6-17.7h-95.7c-26,0-25.3,21.7-25.3,21.7v87.6c0,0-2.9,24.9,23.7,24.9h96.6c21.8,0,24-21.5,24-21.5
	V99.9H678V79.7h193.2v57.1C871,136.7,871,173.4,829.7,173.4z"/>
<polyline fill="#FFFFFF" points="148.8,173.7 0,0 153.3,0 230.9,117.2 314.5,0 466.2,0 315.6,173.7 148.8,173.7 "/>
</svg>
